<svg xmlns="http://www.w3.org/2000/svg" width="800" height="800" fill="none" viewBox="0 0 800 800"><circle cx="400" cy="400" r="300" fill="#f0f9ff"/><circle cx="300" cy="300" r="70" fill="#60a5fa"/><path fill="#60a5fa" d="M300 380 L300 500 L330 500 L330 420 L270 420 L270 500 L300 500 Z"/><circle cx="300" cy="280" r="30" fill="#f0f9ff"/><rect width="60" height="20" x="270" y="420" fill="#f0f9ff"/><circle cx="500" cy="300" r="70" fill="#93c5fd"/><path fill="#93c5fd" d="M500 380 L500 500 L530 500 L530 420 L470 420 L470 500 L500 500 Z"/><circle cx="500" cy="280" r="30" fill="#f0f9ff"/><rect width="60" height="20" x="470" y="420" fill="#f0f9ff"/><path stroke="#3b82f6" stroke-dasharray="10 5" stroke-width="6" d="M350 300 Q400 250 450 300"/><circle cx="400" cy="270" r="15" fill="#3b82f6"/><rect width="10" height="40" x="395" y="250" fill="#f0f9ff"/><rect width="40" height="10" x="380" y="265" fill="#f0f9ff"/><ellipse cx="400" cy="500" fill="#dbeafe" rx="150" ry="50"/><path stroke="#3b82f6" stroke-width="2" d="M250 500 Q400 450 550 500"/><path stroke="#3b82f6" stroke-width="2" d="M250 500 Q400 550 550 500"/><path stroke="#3b82f6" stroke-width="2" d="M400 450 L400 550"/><path stroke="#3b82f6" stroke-width="2" d="M325 460 L475 540"/><path stroke="#3b82f6" stroke-width="2" d="M325 540 L475 460"/></svg>