<svg xmlns="http://www.w3.org/2000/svg" width="800" height="800" viewBox="0 0 800 800" fill="none">
  <circle cx="400" cy="400" r="300" fill="#f0f9ff" />
  
  <!-- Doctor -->
  <circle cx="300" cy="300" r="70" fill="#60a5fa" />
  <path d="M300 380 L300 500 L330 500 L330 420 L270 420 L270 500 L300 500 Z" fill="#60a5fa" />
  <circle cx="300" cy="280" r="30" fill="#f0f9ff" />
  <rect x="270" y="420" width="60" height="20" fill="#f0f9ff" />
  
  <!-- Patient -->
  <circle cx="500" cy="300" r="70" fill="#93c5fd" />
  <path d="M500 380 L500 500 L530 500 L530 420 L470 420 L470 500 L500 500 Z" fill="#93c5fd" />
  <circle cx="500" cy="280" r="30" fill="#f0f9ff" />
  <rect x="470" y="420" width="60" height="20" fill="#f0f9ff" />
  
  <!-- Connection Line -->
  <path d="M350 300 Q400 250 450 300" stroke="#3b82f6" stroke-width="6" stroke-dasharray="10 5" />
  
  <!-- Medical Symbols -->
  <circle cx="400" cy="270" r="15" fill="#3b82f6" />
  <rect x="395" y="250" width="10" height="40" fill="#f0f9ff" />
  <rect x="380" y="265" width="40" height="10" fill="#f0f9ff" />
  
  <!-- Globe Elements -->
  <ellipse cx="400" cy="500" rx="150" ry="50" fill="#dbeafe" />
  <path d="M250 500 Q400 450 550 500" stroke="#3b82f6" stroke-width="2" />
  <path d="M250 500 Q400 550 550 500" stroke="#3b82f6" stroke-width="2" />
  <path d="M400 450 L400 550" stroke="#3b82f6" stroke-width="2" />
  <path d="M325 460 L475 540" stroke="#3b82f6" stroke-width="2" />
  <path d="M325 540 L475 460" stroke="#3b82f6" stroke-width="2" />
</svg> 